<?xml version="1.0" standalone="no"?>
<!DOCTYPE svg PUBLIC "-//W3C//DTD SVG 1.1//EN" "http://www.w3.org/Graphics/SVG/1.1/DTD/svg11.dtd" >
<svg xmlns="http://www.w3.org/2000/svg" xmlns:xlink="http://www.w3.org/1999/xlink" version="1.1">
<metadata></metadata>
<defs>
<font id="truenolight_italic" horiz-adv-x="1470" >
<font-face units-per-em="2048" ascent="1638" descent="-410" />
<missing-glyph horiz-adv-x="561" />
<glyph unicode="&#xfb01;" horiz-adv-x="1210" d="M221 922l19 131h139l17 118q17 115 79.5 199.5t145 124t173.5 39.5q113 -3 187 -55l-26 -150q-88 53 -180 53q-83 2 -144 -48t-74 -142l-20 -139h309l-19 -131h-309l-133 -922h-158l133 922h-139zM858 0l156 1079h159l-155 -1079h-160zM1034 1389q7 47 40.5 78.5 t77.5 31.5t69.5 -31.5t18.5 -78.5t-41.5 -79t-78.5 -32t-68.5 32t-17.5 79z" />
<glyph unicode="&#xfb02;" horiz-adv-x="1249" d="M221 924l19 129h139l20 139q22 152 134.5 251t261.5 97q115 -3 190 -51l-26 -150q-69 55 -156 58q-92 2 -163.5 -63t-85.5 -165l-17 -116h309l-19 -129h-309l-133 -924h-158l133 924h-139zM885 0l219 1520h159l-219 -1520h-159z" />
<glyph horiz-adv-x="0" />
<glyph horiz-adv-x="682" />
<glyph unicode=" "  horiz-adv-x="561" />
<glyph unicode="&#x09;" horiz-adv-x="561" />
<glyph unicode="&#xa0;" horiz-adv-x="561" />
<glyph unicode="!" horiz-adv-x="415" d="M140 90q7 46 40 76.5t74 30.5q43 0 67.5 -30.5t17.5 -76.5t-40 -76t-76 -30q-42 0 -66 30.5t-17 75.5zM234 432l69 631l50 346h153l-50 -346l-115 -631h-107z" />
<glyph unicode="&#x22;" horiz-adv-x="641" d="M262 969l67 465h127l-67 -465h-127zM531 969l67 465h127l-67 -465h-127z" />
<glyph unicode="#" d="M126 379l29 129h297l110 405h-293l29 129h299l103 392h123l-103 -392h411l106 392h121l-104 -392h291l-27 -129h-299l-110 -405h293l-28 -129h-297l-102 -379h-123l102 379h-412l-102 -379h-123l102 379h-293zM575 508h412l109 405h-413z" />
<glyph unicode="$" horiz-adv-x="1249" d="M96 213l95 147q75 -87 180.5 -139t218.5 -61l74 508q-73 22 -119 40t-103 51.5t-87.5 72t-47 100t-5.5 137.5q22 153 150 251.5t322 115.5l36 250h125l-36 -248q109 -6 211.5 -41t175.5 -90l-92 -154q-138 101 -319 119l-67 -467q79 -26 124 -43t108 -53t93.5 -75.5 t48.5 -103t6 -143.5q-24 -163 -159 -267.5t-337 -121.5l-39 -272h-125l39 270q-140 9 -264 67.5t-207 149.5zM484 1083q-7 -48 5 -86t43 -66t67.5 -48t89.5 -39l61 426q-114 -11 -184.5 -59.5t-81.5 -127.5zM716 162q124 14 201 71t90 146q14 99 -44.5 154t-179.5 96z" />
<glyph unicode="%" horiz-adv-x="1929" d="M234 1012q29 200 141 312t284 112t253 -112.5t53 -311.5q-29 -200 -142.5 -312t-285.5 -112t-252 111.5t-51 312.5zM336 0l1280 1434h157l-1277 -1434h-160zM346 1012q-23 -154 31 -237t175 -83t198 83t100 237t-30.5 237.5t-174.5 83.5t-198.5 -83.5t-100.5 -237.5z M1171 422q28 199 140.5 310.5t284.5 111.5t253 -111.5t53 -310.5q-29 -200 -142.5 -312t-285.5 -112t-252 111.5t-51 312.5zM1283 422q-22 -155 31 -238.5t175 -83.5q121 0 198 83.5t100 238.5q22 154 -31 236.5t-175 82.5q-121 0 -198 -82.5t-100 -236.5z" />
<glyph unicode="&#x26;" horiz-adv-x="1329" d="M174 385q9 61 35 114.5t60.5 93.5t85.5 78t96.5 64.5t107.5 57.5q-120 191 -99 337q20 136 129.5 223t265.5 87q148 0 228 -80.5t62 -208.5q-8 -56 -36.5 -107t-63 -86.5t-93.5 -74.5t-102.5 -62.5t-115.5 -58.5q94 -132 296 -363q97 113 188 279l96 -84 q-97 -168 -203 -287l213 -244l-99 -90l-205 238q-238 -219 -476 -219q-180 0 -287 112.5t-83 280.5zM311 397q-17 -120 57.5 -197t200.5 -77q183 0 372 180q-236 276 -325 402q-64 -33 -110.5 -62t-90.5 -66.5t-70 -82.5t-34 -97zM591 1133q-17 -116 84 -285q78 38 124 63.5 t98.5 63.5t80.5 81.5t36 94.5q11 80 -36 129t-139 49q-98 0 -167 -55.5t-81 -140.5z" />
<glyph unicode="'" horiz-adv-x="372" d="M262 969l67 465h127l-67 -465h-127z" />
<glyph unicode="(" horiz-adv-x="620" d="M262 147q-30 230 7 486t133 485t239 402h145q-139 -175 -234 -404t-131 -483q-36 -258 -7 -485.5t117 -401.5h-146q-93 171 -123 401z" />
<glyph unicode=")" horiz-adv-x="651" d="M144 -254q138 173 233.5 403t131.5 484q36 259 7 485.5t-117 401.5h146q93 -173 123 -402t-7 -485q-37 -257 -133 -486t-239 -401h-145z" />
<glyph unicode="*" horiz-adv-x="671" d="M209 1065l208 111l-177 106l58 88l176 -113l30 220h90l-32 -220l207 111l32 -86l-210 -106l179 -111l-58 -86l-176 113l-30 -222h-90l34 222l-209 -113z" />
<glyph unicode="+" horiz-adv-x="1005" d="M163 602l17 119h372l54 371h110l-53 -371h371l-17 -119h-371l-54 -371h-110l53 371h-372z" />
<glyph unicode="," horiz-adv-x="403" d="M65 -147l89 149q-40 26 -32 88q7 44 38.5 73.5t72.5 29.5t65.5 -28.5t17.5 -76.5q-6 -40 -44 -88l-117 -147h-90z" />
<glyph unicode="-" horiz-adv-x="743" d="M212 561l17 119h481l-17 -119h-481z" />
<glyph unicode="." horiz-adv-x="407" d="M117 90q7 46 40 76.5t76 30.5q41 0 65.5 -30.5t17.5 -76.5q-7 -45 -39.5 -75.5t-74.5 -30.5q-43 0 -67.5 30t-17.5 76z" />
<glyph unicode="/" horiz-adv-x="649" d="M-59 -250l917 1929h142l-919 -1929h-140z" />
<glyph unicode="0" horiz-adv-x="1400" d="M212 717q50 347 230 534t466 187t412 -187t76 -534t-230 -534t-466 -187t-412 187t-76 534zM378 717q-42 -289 45 -435.5t297 -146.5t339 146.5t171 435.5q42 290 -45 435.5t-297 145.5t-339 -145.5t-171 -435.5z" />
<glyph unicode="1" horiz-adv-x="759" d="M219 1278l22 156h453l-207 -1434h-161l184 1278h-291z" />
<glyph unicode="2" horiz-adv-x="1189" d="M98 0l20 135l620 584q104 91 170.5 184t76.5 162q15 104 -52.5 163.5t-202.5 59.5q-98 0 -207.5 -47t-208.5 -131l-53 131q119 95 252 147t260 52q198 0 303 -96t82 -257q-28 -193 -321 -464l-507 -467h776l-23 -156h-985z" />
<glyph unicode="3" horiz-adv-x="1079" d="M34 137l92 137q68 -64 160 -99.5t191 -35.5q165 0 271.5 81t125.5 214t-64.5 203t-253.5 70h-176l15 104l487 465h-620l22 156h825l-15 -111l-516 -494l79 -6q195 -9 298 -110.5t79 -270.5q-29 -200 -183.5 -324t-382.5 -124q-122 0 -237.5 39.5t-196.5 105.5z" />
<glyph unicode="4" horiz-adv-x="1181" d="M118 377l19 135l647 922h162l-629 -899h512l54 378h154l-55 -378h217l-22 -158h-217l-55 -377h-153l54 377h-688z" />
<glyph unicode="5" horiz-adv-x="1157" d="M89 152l88 139q79 -67 180.5 -105.5t198.5 -38.5q161 0 266.5 83.5t126.5 228.5q18 127 -64 201.5t-240 74.5q-73 0 -185.5 -10t-188.5 -25l106 734h831l-23 -158h-680l-58 -404q131 21 245 21q223 0 341 -118.5t91 -305.5q-31 -215 -187.5 -344t-386.5 -129 q-118 0 -243.5 42.5t-217.5 113.5z" />
<glyph unicode="6" horiz-adv-x="1236" d="M207 686q50 343 238.5 548.5t460.5 205.5q97 0 203 -28.5t188 -74.5l-85 -131q-64 41 -149 64.5t-168 23.5q-227 0 -366 -172t-164 -467q66 126 187 194.5t279 68.5q210 0 314.5 -121.5t74.5 -329.5q-31 -219 -181.5 -347t-372.5 -128q-263 0 -385 182t-74 512zM375 457 q-9 -54 4 -107.5t47 -100.5t99.5 -76.5t152.5 -29.5q154 0 260.5 87.5t128.5 238.5q20 143 -56.5 226t-228.5 83q-165 0 -277.5 -94t-129.5 -227z" />
<glyph unicode="7" horiz-adv-x="1134" d="M264 1276l22 158h996l-20 -138l-783 -1296h-174l774 1276h-668l-30 -209z" />
<glyph unicode="8" horiz-adv-x="1263" d="M160 397q19 135 115 231t247 138q-107 45 -158.5 126.5t-35.5 190.5q24 166 161 261.5t349 95.5q214 0 323.5 -96.5t85.5 -264.5q-16 -109 -89 -189.5t-190 -123.5q135 -42 201.5 -137t47.5 -228q-28 -191 -184.5 -300t-400.5 -109q-246 0 -372.5 108t-99.5 297zM318 416 q-19 -135 69 -210t265 -75q174 0 284 75.5t129 209.5q18 128 -70 200t-265 72q-175 0 -284.5 -72.5t-127.5 -199.5zM467 1069q-16 -115 59 -179.5t226 -64.5q149 0 242.5 64.5t109.5 179.5t-58.5 179.5t-223.5 64.5q-151 0 -245 -64.5t-110 -179.5z" />
<glyph unicode="9" horiz-adv-x="1236" d="M163 96l85 131q64 -41 149 -64.5t168 -23.5q227 0 366 172t164 467q-66 -126 -187 -194t-279 -68q-210 0 -314.5 121.5t-74.5 329.5q31 219 181 347t372 128q262 0 384.5 -182t75.5 -510q-50 -345 -238.5 -550.5t-460.5 -205.5q-97 0 -203 28t-188 74zM393 965 q-20 -143 56.5 -226.5t228.5 -83.5q164 0 277 94.5t132 227.5q6 42 0 85t-28 84.5t-57 73t-92 51t-128 19.5q-155 0 -261 -86.5t-128 -238.5z" />
<glyph unicode=":" horiz-adv-x="401" d="M117 90q7 46 40 76.5t76 30.5q41 0 65.5 -30.5t17.5 -76.5q-7 -45 -39.5 -75.5t-74.5 -30.5q-43 0 -67.5 30t-17.5 76zM205 698q7 46 40 76.5t76 30.5q41 0 65.5 -30.5t17.5 -76.5q-7 -45 -39.5 -75.5t-74.5 -30.5q-43 0 -67.5 30t-17.5 76z" />
<glyph unicode=";" horiz-adv-x="405" d="M65 -147l89 149q-40 26 -32 88q7 44 38.5 73.5t72.5 29.5t65.5 -28.5t17.5 -76.5q-6 -40 -44 -88l-117 -147h-90zM205 698q7 46 40 76.5t76 30.5q41 0 65.5 -30.5t17.5 -76.5q-7 -45 -39.5 -75.5t-74.5 -30.5q-43 0 -67.5 30t-17.5 76z" />
<glyph unicode="&#x3c;" horiz-adv-x="1005" d="M161 592l22 153l909 381l-19 -135l-790 -323l696 -324l-19 -133z" />
<glyph unicode="=" horiz-adv-x="1005" d="M132 389l17 121h854l-17 -121h-854zM193 813l17 121h854l-17 -121h-854z" />
<glyph unicode="&#x3e;" horiz-adv-x="1005" d="M107 217l20 135l790 324l-697 323l19 134l799 -381l-22 -154z" />
<glyph unicode="?" horiz-adv-x="868" d="M163 1044q33 175 153 271t299 96q175 0 269 -85.5t71 -244.5q-10 -68 -36 -124t-60.5 -95t-74.5 -74.5t-80 -69t-74.5 -70t-59.5 -87t-34 -110.5h-127q10 69 35 125.5t57.5 95.5t70 73t74.5 65.5t69 65t55.5 80.5t31.5 103q15 102 -46 155.5t-176 53.5q-116 0 -191.5 -58 t-97.5 -170zM318 90q7 46 40 76.5t74 30.5q43 0 67.5 -30.5t17.5 -76.5t-40 -76t-76 -30q-42 0 -66 30.5t-17 75.5z" />
<glyph unicode="@" horiz-adv-x="2019" d="M160 545q36 254 189 461.5t385.5 325.5t494.5 118q196 0 356.5 -68t264.5 -186.5t149 -286t17 -360.5q-34 -238 -153.5 -382t-280.5 -144q-91 0 -143.5 48t-48.5 138l8 67q-77 -107 -190.5 -165t-243.5 -58q-100 0 -185 36.5t-142 101t-82.5 157.5t-10.5 201 q31 215 185.5 359.5t364.5 144.5q137 0 233 -64t120 -141l27 188h152l-110 -766q-9 -65 18 -100t79 -35q95 0 174.5 114.5t105.5 295.5q24 165 -13 308.5t-124.5 247t-228 163t-316.5 59.5q-227 0 -428.5 -102t-334 -280.5t-163.5 -395.5q-23 -159 17 -298t130.5 -237.5 t228 -154.5t303.5 -56q94 0 206 30t196 83l40 -115q-92 -57 -221.5 -92t-238.5 -35q-193 0 -353 66.5t-264 181.5t-150 278t-19 349zM709 557q-22 -151 59.5 -252.5t231.5 -101.5q153 0 264 100.5t133 251.5q21 148 -62 246t-237 98q-149 0 -258.5 -98t-130.5 -244z" />
<glyph unicode="A" d="M8 0l850 1434h170l434 -1434h-178l-107 362h-783l-212 -362h-174zM487 520h643l-219 727z" />
<glyph unicode="B" horiz-adv-x="1466" d="M217 0l207 1434h604q217 0 326 -95q89 -78 89 -205q0 -28 -4 -59q-18 -126 -100 -211.5t-211 -111.5q151 -23 224 -119q57 -75 57 -180q0 -30 -5 -64q-26 -183 -178 -286t-395 -103h-614zM403 156h432q175 0 281.5 66.5t124.5 189.5q3 19 3 37q0 91 -74 145 q-88 65 -262 65h-432zM498 815h433q145 0 233.5 61t104.5 173q3 20 3 38q0 82 -58 130q-72 59 -217 59h-432z" />
<glyph unicode="C" horiz-adv-x="1433" d="M186 719q29 197 152 362.5t308.5 261t390.5 95.5q146 0 274.5 -55.5t219.5 -153.5l-117 -125q-71 85 -175 132.5t-222 47.5q-160 0 -305 -75t-242 -205t-119 -285q-6 -42 -6 -82q0 -107 43 -202q59 -130 183 -205.5t283 -75.5q117 0 233.5 45.5t214.5 126.5l84 -113 q-123 -102 -270.5 -161.5t-293.5 -59.5q-153 0 -282 57t-213.5 154t-122.5 231q-25 87 -25 181q0 51 7 104z" />
<glyph unicode="D" horiz-adv-x="1615" d="M217 0l207 1434h579q206 0 361 -94q156 -94 229 -258q52 -118 53 -254q0 -54 -9 -111q-22 -151 -98 -284t-188.5 -228t-258 -150t-301.5 -55h-574zM403 156h418q118 0 229.5 43t198 116.5t146 177.5t76.5 222q7 45 7 87q0 107 -42 200q-58 129 -179.5 201.5t-280.5 72.5 h-411z" />
<glyph unicode="E" horiz-adv-x="1333" d="M217 0l207 1434h972l-22 -158h-809l-68 -471h723l-23 -158h-723l-71 -491h836l-22 -156h-1000z" />
<glyph unicode="F" horiz-adv-x="1153" d="M217 0l207 1434h911l-23 -158h-747l-73 -504h670l-23 -158h-670l-88 -614h-164z" />
<glyph unicode="G" horiz-adv-x="1542" d="M185 717q29 198 153 364t311.5 261.5t395.5 95.5q147 0 278 -52.5t222 -144.5l-112 -123q-77 79 -184 122.5t-226 43.5q-161 0 -308 -75.5t-244.5 -206t-119.5 -285.5q-6 -43 -6 -84q0 -108 43 -203q61 -131 186.5 -207t286.5 -76q200 0 394 121l62 432h146l-75 -520 q-121 -86 -269.5 -137t-290.5 -51q-153 0 -283.5 57t-216.5 154t-125 231q-25 87 -25 181q0 50 7 102z" />
<glyph unicode="H" horiz-adv-x="1626" d="M217 0l207 1434h164l-94 -648h865l93 648h164l-207 -1434h-164l91 631h-864l-91 -631h-164z" />
<glyph unicode="I" horiz-adv-x="598" d="M217 0l207 1434h164l-207 -1434h-164z" />
<glyph unicode="J" horiz-adv-x="989" d="M28 197l101 131q55 -81 130.5 -123.5t159.5 -42.5q119 0 192.5 69.5t92.5 202.5l144 1000h165l-144 -1004q-30 -208 -155 -323t-318 -115q-118 0 -211.5 53.5t-156.5 151.5z" />
<glyph unicode="K" horiz-adv-x="1431" d="M217 0l207 1434h164l-119 -826l889 826h194l-657 -623l494 -811h-201l-431 680l-322 -305l-54 -375h-164z" />
<glyph unicode="L" horiz-adv-x="1058" d="M217 0l207 1434h164l-185 -1278h629l-22 -156h-793z" />
<glyph unicode="M" horiz-adv-x="1886" d="M217 0l207 1434h202l376 -1033l671 1033h201l-207 -1434h-151l168 1182l-671 -1030h-98l-372 1030l-170 -1182h-156z" />
<glyph unicode="N" horiz-adv-x="1628" d="M217 0l207 1434h170l694 -1153l166 1153h162l-207 -1434h-168l-694 1151l-166 -1151h-164z" />
<glyph unicode="O" horiz-adv-x="1665" d="M185 717q29 200 152.5 365.5t310 260.5t393.5 95q154 0 284.5 -56.5t216.5 -152.5q87 -95 126 -229q25 -87 25 -181q0 -50 -7 -102q-29 -198 -152.5 -365t-309.5 -263.5t-392 -96.5q-155 0 -286 57t-217 154q-85 97 -125 231q-26 87 -26 181q0 50 7 102zM351 717 q-6 -41 -6 -81q1 -108 45 -204q60 -130 184 -206t281 -76t302 75.5t242 206t119 285.5q6 42 6 82q0 108 -44 203q-60 130 -182.5 205t-279.5 75t-303 -75t-244 -205.5t-120 -284.5z" />
<glyph unicode="P" horiz-adv-x="1370" d="M217 0l207 1434h538q266 0 394 -126q102 -101 103 -267q0 -43 -7 -89q-34 -238 -199.5 -368.5t-431.5 -130.5h-375l-65 -453h-164zM469 610h369q196 0 314 86t142 252q5 32 5 60q0 116 -76 184q-94 84 -290 84h-368z" />
<glyph unicode="Q" horiz-adv-x="1699" d="M185 717q29 200 152.5 365.5t310 260.5t393.5 95q154 0 284.5 -56.5t217 -152.5t125.5 -229q25 -87 25 -181q0 -50 -7 -102q-36 -251 -220 -445.5t-436 -255.5q127 -159 268 -159q125 0 295 129l54 -123q-194 -158 -389 -158q-242 0 -409 287h-17q-155 0 -286 57 t-217 154t-125 231q-26 87 -26 181q0 50 7 102zM351 717q-6 -41 -6 -81q0 -109 45 -204q60 -131 184 -206.5t281 -75.5t302 75.5t242 206t119 285.5q6 42 6 82q0 108 -44 203q-59 130 -182 205t-280 75t-303 -75t-244 -205.5t-120 -284.5z" />
<glyph unicode="R" horiz-adv-x="1480" d="M217 0l207 1434h544q268 0 398 -126q104 -101 105 -268q0 -42 -7 -88q-25 -177 -124.5 -295.5t-263.5 -169.5l265 -487h-186l-231 457q-62 -4 -97 -4h-381l-65 -453h-164zM469 610h381q197 0 314.5 86t141.5 252q5 32 5 61q0 117 -75 183q-93 84 -290 84h-381z" />
<glyph unicode="S" horiz-adv-x="1251" d="M96 213l95 147q85 -96 205 -149t243 -53q155 0 254 59t114 162q3 18 3 35q0 38 -15 70q-21 46 -63 75t-99 52t-121 42t-128 40.5t-120 52.5t-96 72q-42 41 -60 105q-11 39 -11 84q0 29 5 62q24 168 175 269.5t374 101.5q122 0 237.5 -36t197.5 -97l-92 -154 q-83 61 -184 91t-194 30q-140 0 -229.5 -50.5t-102.5 -140.5q-3 -17 -3 -33q-1 -33 11 -62q16 -42 51.5 -69t83.5 -50.5t104 -40t114 -37t113 -41t102 -53.5t80 -73q32 -42 46 -102q7 -33 7 -71q0 -31 -5 -64q-26 -179 -184 -286t-390 -107q-153 0 -290.5 60t-227.5 159z " />
<glyph unicode="T" horiz-adv-x="1142" d="M206 1276l23 158h1100l-23 -158h-469l-184 -1276h-164l184 1276h-467z" />
<glyph unicode="U" horiz-adv-x="1572" d="M269 590l122 844h164l-122 -844q-7 -48 -7 -90q0 -144 78 -234q101 -116 306 -116t337.5 116t162.5 324l121 844h164l-121 -844q-41 -280 -223.5 -439t-463.5 -159q-283 0 -421 159q-107 123 -106 319q0 57 9 120z" />
<glyph unicode="V" horiz-adv-x="1361" d="M219 1434h176l314 -1244l675 1244h172l-792 -1434h-170z" />
<glyph unicode="W" horiz-adv-x="2082" d="M219 1434h176l214 -1244l568 1242l164 2l214 -1244l569 1244h169l-687 -1434h-168l-213 1208l-566 -1208h-167z" />
<glyph unicode="X" horiz-adv-x="1361" d="M45 0l633 737l-389 697h192l316 -553l479 553h192l-586 -689l421 -745h-197l-350 600l-518 -600h-193z" />
<glyph unicode="Y" horiz-adv-x="1280" d="M215 1434h170l357 -748l566 748h168l-680 -942l-71 -492h-162l70 485z" />
<glyph unicode="Z" horiz-adv-x="1351" d="M88 0l19 131l1115 1145h-923l22 158h1139l-19 -131l-1115 -1147h960l-24 -156h-1174z" />
<glyph unicode="[" horiz-adv-x="684" d="M180 -254l256 1774h404l-20 -138h-258l-216 -1499h258l-20 -137h-404z" />
<glyph unicode="\" horiz-adv-x="915" d="M375 1679h139l363 -1929h-139z" />
<glyph unicode="]" horiz-adv-x="843" d="M189 -254l19 137h259l216 1499h-259l20 138h402l-256 -1774h-401z" />
<glyph unicode="^" horiz-adv-x="1054" d="M108 266l496 811h153l264 -811h-133l-221 707l-426 -707h-133z" />
<glyph unicode="_" horiz-adv-x="1134" d="M-60 -418l15 107h1135l-16 -107h-1134z" />
<glyph unicode="`" horiz-adv-x="716" d="M356 1460l175 76l205 -279h-153z" />
<glyph unicode="a" horiz-adv-x="1181" d="M149 322q20 142 139.5 225t308.5 84h354l9 63q4 25 4 48q0 86 -51 138q-64 66 -205 66q-164 0 -360 -123l-51 117q125 75 228.5 110t233.5 35q197 -1 291 -99q75 -79 76 -207q0 -32 -5 -66l-101 -713h-156l24 166q-153 -174 -420 -174q-164 0 -252 94q-71 76 -71 183 q0 26 4 53zM299 328q-2 -16 -2 -31q1 -69 49 -113q60 -54 173 -53q137 0 243.5 65t153.5 177l19 129h-336q-275 0 -300 -174z" />
<glyph unicode="b" horiz-adv-x="1384" d="M205 0l219 1520h160l-98 -674q77 114 194 176.5t257 62.5q229 -1 351 -153q95 -119 95 -291q0 -50 -7 -104q-35 -240 -200 -391.5t-393 -151.5q-143 0 -242 61.5t-143 175.5l-33 -231h-160zM442 541q-5 -38 -5 -72q1 -129 73 -217q92 -112 262 -113q168 0 292.5 113.5 t150.5 288.5q5 37 5 71q0 126 -72 216q-92 114 -261 114q-170 0 -294.5 -113t-150.5 -288z" />
<glyph unicode="c" horiz-adv-x="1148" d="M164 539q34 240 206.5 392t406.5 152h9q252 0 383 -159l-104 -113q-114 125 -303 125q-168 0 -292 -110.5t-149 -286.5q-5 -38 -5 -73q0 -127 72 -215q92 -112 259 -112q216 0 354 140l78 -99q-86 -89 -203.5 -137.5t-255.5 -48.5q-234 0 -362 152q-101 120 -101 295 q0 47 7 98z" />
<glyph unicode="d" horiz-adv-x="1390" d="M164 541q35 243 201.5 394.5t395.5 151.5q144 0 243.5 -62.5t143.5 -178.5l97 674h160l-219 -1520h-160l33 231q-77 -115 -193.5 -177t-260.5 -62q-230 0 -353 154q-96 119 -96 292q0 49 8 103zM323 537q-6 -38 -6 -73q0 -128 74 -216q94 -114 265 -113 q170 0 295.5 113.5t151.5 288.5q6 39 6 74q0 128 -73 217q-93 114 -263 114q-172 0 -298 -114t-152 -291z" />
<glyph unicode="e" horiz-adv-x="1204" d="M164 539q23 159 109 283t217.5 192.5t286.5 68.5h3q254 0 360 -162q71 -109 70 -270q0 -80 -17 -174h-881q-1 -158 92 -251t250 -93q204 0 353 135l75 -94q-90 -87 -208 -133.5t-252 -46.5q-157 0 -269 68q-112 70 -162 194q-34 85 -34 186q0 47 7 97zM331 608h738 q2 23 2 45q1 123 -71 201q-84 92 -243 92q-154 0 -269.5 -92t-156.5 -246z" />
<glyph unicode="f" horiz-adv-x="663" d="M220 915l19 132h139l17 118q16 113 78 197.5t145.5 125t175.5 40.5q134 -3 220 -76l-84 -129q-69 55 -156 55q-82 0 -143.5 -51t-74.5 -141l-20 -139h309l-19 -132h-309l-132 -915h-158l132 915h-139z" />
<glyph unicode="g" horiz-adv-x="1302" d="M114 -246l92 123q143 -134 342 -137q177 0 297.5 100.5t144.5 268.5l24 163q-72 -108 -183 -166.5t-247 -58.5q-218 0 -334 145q-89 114 -89 279q0 47 7 98q32 226 189 370.5t373 145.5q137 0 231.5 -58.5t137.5 -166.5l31 219h160l-139 -966q-34 -235 -202 -374.5 t-415 -139.5q-238 3 -420 155zM317 563q-5 -35 -5 -67q0 -122 70 -207q88 -107 250 -107q161 0 280.5 107.5t143.5 273.5q5 36 5 70q0 122 -69 206q-88 107 -249 107q-162 0 -281 -107.5t-145 -275.5z" />
<glyph unicode="h" horiz-adv-x="1355" d="M205 0l219 1520h160l-99 -682q142 244 456 247q193 1 285 -111q71 -85 70 -221q0 -41 -6 -87l-96 -666h-160l90 623q4 32 4 60q0 101 -54 163q-70 80 -212 80q-170 -1 -283 -110.5t-138 -285.5l-76 -530h-160z" />
<glyph unicode="i" horiz-adv-x="546" d="M195 0l155 1079h158l-156 -1079h-157zM368 1389q7 47 41.5 78.5t78.5 31.5q44 1 70 -31q20 -25 21 -60q0 -9 -2 -19q-7 -47 -41.5 -79t-78.5 -32t-70 32q-20 25 -20 60q0 9 1 19z" />
<glyph unicode="j" horiz-adv-x="546" d="M-228 -330l76 131q66 -55 148 -55q73 0 121.5 48.5t62.5 144.5l164 1140h160l-162 -1120q-26 -178 -126 -271q-99 -91 -229 -91h-6q-124 0 -209 73zM360 1389q7 47 43 79.5t82 32.5q47 0 73 -32q20 -25 20 -60q0 -10 -1 -20q-7 -48 -42.5 -80.5t-82.5 -32.5q-46 0 -72 33 q-21 26 -21 61q0 9 1 19z" />
<glyph unicode="k" horiz-adv-x="1173" d="M205 0l219 1520h160l-144 -994l635 553h188l-463 -417l351 -662h-190l-291 545l-261 -236l-44 -309h-160z" />
<glyph unicode="l" horiz-adv-x="569" d="M205 0l219 1520h160l-219 -1520h-160z" />
<glyph unicode="m" horiz-adv-x="2138" d="M195 0l155 1079h158l-35 -243q140 246 447 249q152 0 242.5 -74t104.5 -208q70 140 189 210t277 72q189 1 279 -111q69 -85 69 -220q0 -42 -7 -88l-96 -666h-159l89 623q5 34 5 64q0 99 -52 161q-68 80 -208 80q-166 -4 -275 -113t-134 -285l-77 -530h-161l89 623 q5 34 5 65q0 98 -52 160q-68 80 -208 80q-165 -4 -275.5 -113.5t-135.5 -284.5l-77 -530h-157z" />
<glyph unicode="n" horiz-adv-x="1343" d="M195 0l155 1079h160l-34 -237q145 240 453 243q193 1 285 -111q71 -85 70 -221q0 -41 -6 -87l-96 -666h-160l90 623q4 32 4 60q0 101 -54 163q-70 80 -212 80q-157 -1 -266 -95t-146 -251l-84 -580h-159z" />
<glyph unicode="o" horiz-adv-x="1265" d="M164 541q34 240 209.5 391t415.5 151q239 -1 371 -151q104 -120 105 -296q0 -46 -7 -95q-35 -242 -210.5 -394.5t-415.5 -152.5t-372 152q-104 120 -103 297q0 47 7 98zM323 539q-5 -38 -5 -73q0 -129 72 -217q92 -112 262.5 -112t295.5 112t150 290q5 37 5 72 q0 127 -73 215q-93 112 -262 112t-294.5 -111.5t-150.5 -287.5z" />
<glyph unicode="p" horiz-adv-x="1384" d="M148 -397l212 1476h160l-34 -233q77 114 194 176.5t257 62.5q229 0 351 -153q96 -118 96 -291q0 -50 -8 -104q-35 -240 -200 -391.5t-393 -151.5q-143 0 -242 61.5t-143 175.5l-91 -628h-159zM442 541q-5 -38 -5 -72q0 -129 73 -217q92 -113 262 -113q168 0 292.5 113.5 t150.5 288.5q5 37 5 71q0 127 -72 216q-93 114 -261 114q-170 0 -294.5 -113t-150.5 -288z" />
<glyph unicode="q" horiz-adv-x="1390" d="M164 541q35 243 201.5 394.5t395.5 151.5q144 0 243.5 -62.5t143.5 -178.5l34 233h159l-212 -1476h-160l90 628q-77 -115 -193.5 -177t-260.5 -62q-230 0 -353 154q-96 119 -96 292q0 49 8 103zM323 537q-6 -38 -6 -73q0 -127 74 -216q94 -113 265 -113 q170 0 295.5 113.5t151.5 288.5q6 39 6 74q0 128 -73 217q-93 114 -263 114q-172 0 -298 -114t-152 -291z" />
<glyph unicode="r" horiz-adv-x="761" d="M195 0l155 1079h160l-35 -239q144 242 423 245l-24 -161h-10q-160 0 -274 -92q-116 -96 -153 -259l-83 -573h-159z" />
<glyph unicode="s" horiz-adv-x="927" d="M72 145l79 121q59 -64 151 -100.5t188 -36.5q101 0 171 39t82 115q2 13 2 25q0 31 -14 56q-20 35 -59 54.5t-90 39t-105 34.5t-104.5 40t-88.5 56q-37 32 -55 84q-12 34 -12 74q0 23 4 47q11 75 49.5 132.5t96.5 91.5t126.5 51t144.5 17q200 0 330 -98l-80 -127 q-126 88 -280 88q-96 0 -160 -35.5t-74 -107.5q-2 -10 -2 -20q0 -25 12 -47q16 -30 48.5 -49t75.5 -35t91 -31t95.5 -31.5t89 -41.5t72 -57t44.5 -81q8 -29 7 -63q0 -23 -3 -48q-15 -102 -82 -173t-158.5 -102.5t-199.5 -31.5q-118 0 -222.5 39.5t-169.5 111.5z" />
<glyph unicode="t" horiz-adv-x="798" d="M210 915l18 129h156l41 285h158l-41 -285l342 3l-19 -132h-342l-85 -587q-4 -30 -5 -55q-1 -54 21 -83q30 -43 102 -43q82 0 180 56l26 -129q-129 -79 -255 -82q-125 0 -189 77q-47 57 -47 156q0 34 6 74l88 616h-155z" />
<glyph unicode="u" horiz-adv-x="1325" d="M217 414l96 665h160l-90 -622q-5 -32 -5 -61q0 -100 53 -162q68 -80 208 -80q165 3 275.5 111.5t135.5 283.5l76 530h160l-156 -1079h-159l35 244q-141 -247 -446 -250q-189 0 -280 112q-70 86 -70 220q0 42 7 88z" />
<glyph unicode="v" horiz-adv-x="1019" d="M164 1079h170l212 -913l474 913h162l-580 -1079h-166z" />
<glyph unicode="w" horiz-adv-x="1769" d="M164 1079h168l188 -913l444 913h168l186 -913l447 913h166l-555 -1079h-166l-191 877l-441 -877h-166z" />
<glyph unicode="x" horiz-adv-x="1083" d="M43 0l473 555l-291 524h184l228 -409l350 409h176l-436 -524l307 -555h-186l-244 440l-381 -440h-180z" />
<glyph unicode="y" horiz-adv-x="1028" d="M-59 -326l87 133q64 -51 144 -51q131 0 218 152l60 100l-292 1071h168l230 -891l470 891h164l-674 -1233q-68 -124 -159.5 -188t-199.5 -64q-128 0 -216 80z" />
<glyph unicode="z" horiz-adv-x="1077" d="M106 0l18 121l794 817l-658 2l20 139l850 -2l-17 -121l-794 -817l692 -2l-20 -139z" />
<glyph unicode="{" horiz-adv-x="636" d="M169 561l20 141h54q51 0 78.5 29t36.5 92l66 455q19 130 95.5 187t232.5 57h57l-20 -138q-109 0 -162.5 -36.5t-64.5 -116.5l-57 -397q-13 -89 -47 -136t-101 -67q61 -19 82 -65.5t8 -135.5l-58 -399q-11 -80 31.5 -116t151.5 -36l-19 -137h-58q-155 0 -215.5 57 t-41.5 187l65 452q9 64 -10.5 93.5t-70.5 29.5h-53z" />
<glyph unicode="|" horiz-adv-x="512" d="M157 -248l276 1917h127l-276 -1917h-127z" />
<glyph unicode="}" horiz-adv-x="729" d="M147 -258l20 137q110 0 163 36t64 116l57 399q13 90 47 136t101 65q-61 20 -82 67t-8 136l57 397q11 80 -31 116.5t-151 36.5l20 138h57q156 0 216.5 -57t41.5 -187l-66 -455q-9 -63 10.5 -92t70.5 -29h53l-20 -141h-53q-51 0 -79 -29.5t-37 -93.5l-66 -452 q-19 -130 -95.5 -187t-232.5 -57h-57z" />
<glyph unicode="~" horiz-adv-x="1005" d="M227 541q17 120 71 181.5t141 61.5q43 0 89 -20t79 -43.5t72.5 -43.5t70.5 -20q43 0 70 28.5t34 82.5h115q-17 -120 -71 -182t-140 -62q-46 0 -93 19.5t-78.5 43t-70 43t-70.5 19.5q-43 0 -70 -28t-34 -80h-115z" />
<glyph unicode="&#xa1;" horiz-adv-x="413" d="M100 -332l50 346l113 631h106l-68 -631l-50 -346h-151zM267 987q7 46 40 76.5t74 30.5q43 0 67.5 -30.5t17.5 -76.5q-7 -47 -40 -76.5t-76 -29.5q-42 0 -66 29.5t-17 76.5z" />
<glyph unicode="&#xa2;" horiz-adv-x="1148" d="M164 539q32 221 181.5 369t360.5 171l44 299h124l-42 -297q221 -15 337 -157l-104 -113q-99 108 -255 123l-114 -793q184 15 305 138l78 -99q-161 -166 -404 -184l-39 -270h-125l40 272q-205 23 -312 171t-75 370zM321 539q-22 -155 47 -262t204 -132l113 785 q-142 -25 -242 -130.5t-122 -260.5z" />
<glyph unicode="&#xa3;" horiz-adv-x="1107" d="M88 0l21 143h178l70 490h-178l19 127h178l35 241q30 211 151 325t315 114q113 0 206 -49.5t154 -141.5l-89 -131q-107 166 -277 166q-125 0 -201 -73t-96 -212l-34 -239h372l-18 -127h-373l-70 -490h602l-21 -143h-944z" />
<glyph unicode="&#xa4;" horiz-adv-x="1468" d="M100 100l242 213q-99 150 -72 338q26 186 167 338l-178 211l107 100l186 -215q168 113 354 113q191 0 326 -113l246 215l77 -100l-237 -209q99 -150 72 -340t-173 -338l180 -213l-107 -100l-188 217q-165 -108 -353 -108q-189 0 -318 110l-253 -219zM399 651 q-24 -164 85 -280.5t286 -116.5q180 0 323.5 116.5t167.5 280.5q24 167 -86 285.5t-290 118.5q-177 0 -319.5 -118.5t-166.5 -285.5z" />
<glyph unicode="&#xa5;" horiz-adv-x="1267" d="M200 276l11 82h404l18 129l-31 68h-362l12 82h315l-350 797h168l357 -748l566 748h168l-575 -797h327l-11 -82h-375l-44 -59l-19 -138h409l-12 -82h-409l-40 -276h-164l40 276h-403z" />
<glyph unicode="&#xa6;" horiz-adv-x="512" d="M157 -248l103 715h127l-103 -715h-127zM330 954l103 715h127l-103 -715h-127z" />
<glyph unicode="&#xa7;" horiz-adv-x="966" d="M47 -16l70 106q145 -139 345 -139q110 0 191 47t91 121q7 46 -15 81.5t-63.5 57t-94.5 42t-110 36.5t-109.5 42t-92 57t-59 82.5t-10.5 117.5q14 100 96 167t211 89q-125 47 -171.5 105.5t-33.5 146.5q18 125 132.5 201.5t284.5 76.5q188 0 332 -98l-69 -109 q-130 86 -281 86q-107 0 -178 -40.5t-81 -110.5q-6 -42 11 -74.5t50 -54t78 -39.5t95 -33.5t100 -33t93.5 -41.5t75.5 -55.5t47 -79t6 -107.5q-14 -94 -93.5 -168.5t-176.5 -95.5q101 -42 142 -100t28 -146q-19 -129 -141 -211t-297 -82q-122 0 -227 41t-176 115zM333 649 q-12 -82 65 -138t194 -56q104 0 173 45t80 118q12 82 -56.5 131.5t-192.5 49.5q-112 0 -182.5 -41t-80.5 -109z" />
<glyph unicode="&#xa8;" horiz-adv-x="763" d="M292 1401q7 44 39.5 74t73.5 30q42 0 66.5 -30t17.5 -74t-40 -74.5t-74 -30.5t-65.5 30.5t-17.5 74.5zM634 1401q7 44 38.5 74t72.5 30q43 0 67 -30t17 -74q-7 -45 -39.5 -75t-74.5 -30q-41 0 -64.5 30.5t-16.5 74.5z" />
<glyph unicode="&#xa9;" horiz-adv-x="1550" d="M185 713q27 187 141.5 347.5t288.5 255.5t365 95q143 0 264 -55t199 -148.5t113.5 -221.5t15.5 -269q-20 -140 -93 -268.5t-179 -223t-243.5 -151t-281.5 -56.5q-143 0 -263.5 55.5t-198.5 149.5t-113 222t-15 268zM273 713q-24 -163 34.5 -300.5t185.5 -218.5t295 -81 q169 0 321.5 82t252.5 220.5t124 301.5q18 122 -13 232.5t-100 191.5t-175 128.5t-232 47.5q-168 0 -319.5 -82t-250.5 -220.5t-123 -301.5zM515 715q22 151 145.5 254.5t280.5 103.5q73 0 139.5 -28t111.5 -78l-65 -66q-81 86 -198 86q-119 0 -213.5 -78.5t-110.5 -191.5 q-16 -115 55 -196t190 -81q116 0 223 84l47 -59q-62 -53 -137.5 -83t-149.5 -30q-155 0 -247.5 105.5t-70.5 257.5z" />
<glyph unicode="&#xaa;" horiz-adv-x="778" d="M244 1124q12 84 84 130t191 46h213l6 43q8 66 -30.5 102t-121.5 36q-104 0 -231 -68l-20 86q155 80 290 80q124 0 184.5 -59t45.5 -164l-58 -418h-117l16 115q-97 -119 -262 -119q-99 0 -150.5 52.5t-39.5 137.5zM356 1133q-8 -51 27 -83t100 -32q151 0 226 123l14 94 h-191q-77 0 -123 -26.5t-53 -75.5z" />
<glyph unicode="&#xab;" horiz-adv-x="874" d="M151 522l281 344h139l-268 -344l170 -340h-140zM466 522l281 344h140l-269 -344l170 -340h-139z" />
<glyph unicode="&#xac;" horiz-adv-x="1128" d="M173 676l18 121h882l-70 -490h-121l53 369h-762z" />
<glyph unicode="&#xad;" horiz-adv-x="745" d="M212 561l17 119h481l-17 -119h-481z" />
<glyph unicode="&#xae;" horiz-adv-x="1550" d="M185 713q27 187 141.5 347.5t288.5 255.5t365 95q143 0 264 -55t199 -148.5t113.5 -221.5t15.5 -269q-20 -140 -93 -268.5t-179 -223t-243.5 -151t-281.5 -56.5q-143 0 -263.5 55.5t-198.5 149.5t-113 222t-15 268zM273 713q-24 -163 34.5 -300.5t185.5 -218.5t295 -81 q169 0 321.5 82t252.5 220.5t124 301.5q18 122 -13 232.5t-100 191.5t-175 128.5t-232 47.5q-168 0 -319.5 -82t-250.5 -220.5t-123 -301.5zM568 373l103 719h275q138 0 203 -62.5t49 -179.5q-13 -88 -63 -147.5t-132 -84.5l136 -245h-102l-119 229q-15 -2 -43 -2h-188 l-33 -227h-86zM698 678h188q96 0 156 44.5t72 127.5q11 79 -36 121.5t-143 42.5h-189z" />
<glyph unicode="&#xaf;" horiz-adv-x="716" d="M303 1323l19 127h493l-18 -127h-494z" />
<glyph unicode="&#xb0;" horiz-adv-x="671" d="M366 1417q14 94 93 163t174 69q97 0 157.5 -69t46.5 -163q-13 -94 -93.5 -161.5t-177.5 -67.5q-95 0 -154 67.5t-46 161.5zM444 1417q-9 -60 31 -103.5t103 -43.5q66 0 119 43.5t62 103.5t-31.5 105t-106.5 45q-63 0 -115.5 -45t-61.5 -105z" />
<glyph unicode="&#xb1;" horiz-adv-x="1005" d="M85 66l18 120h854l-18 -120h-854zM180 725l17 119h373l53 364h110l-52 -364h370l-17 -119h-370l-53 -363h-110l52 363h-373z" />
<glyph unicode="&#xb2;" horiz-adv-x="778" d="M167 592l13 90l375 338q128 113 140 192q8 56 -30.5 87.5t-114.5 31.5q-59 0 -126.5 -28.5t-126.5 -77.5l-38 92q161 121 325 121q122 0 188 -57.5t52 -153.5q-18 -120 -197 -273l-293 -260h458l-14 -102h-611z" />
<glyph unicode="&#xb3;" horiz-adv-x="712" d="M130 674l65 98q83 -86 211 -86q94 0 153.5 44.5t70.5 117.5q10 71 -37.5 109t-143.5 38h-113l11 74l292 264h-377l14 97h516l-11 -76l-300 -275l47 -2q113 -8 174 -68t47 -159q-17 -118 -111.5 -190t-237.5 -72q-77 0 -149.5 23t-120.5 63z" />
<glyph unicode="&#xb4;" horiz-adv-x="716" d="M335 1257l286 279l150 -78l-283 -201h-153z" />
<glyph unicode="&#xb5;" horiz-adv-x="1370" d="M148 -397l109 759q0 22 5 52l96 665h162l-96 -665q-5 -123 63 -191.5t197 -68.5q165 3 275.5 111.5t135.5 283.5l76 530h160l-155 -1079h-160l35 244q-141 -247 -446 -250q-146 0 -232 65l-66 -456h-159z" />
<glyph unicode="&#xb6;" horiz-adv-x="1212" d="M163.5 1062q-3.5 41 4.5 77q11 75 45.5 141.5t92.5 121t149.5 86.5t205.5 32h553l-251 -1745h-125l235 1634h-309l-235 -1634h-125l144 999q-25 -2 -70 -2q-70 0 -125 17.5t-88.5 46t-58 66.5t-32 78.5t-11 81.5z" />
<glyph unicode="&#xb7;" horiz-adv-x="401" d="M188 578q7 44 38.5 73t72.5 29t64.5 -29t16.5 -73q-7 -46 -38.5 -76.5t-72.5 -30.5t-64.5 30.5t-16.5 76.5z" />
<glyph unicode="&#xb8;" horiz-adv-x="716" d="M120 -391l47 88q44 -41 115 -41q50 0 84.5 28.5t38.5 67.5q5 36 -19 61t-71 25q-41 0 -69 -6l105 186h100l-70 -120q63 -8 97 -49t25 -107q-10 -82 -73 -132t-151 -50q-96 0 -159 49z" />
<glyph unicode="&#xb9;" horiz-adv-x="520" d="M234 1327l16 107h295l-122 -842h-121l106 735h-174z" />
<glyph unicode="&#xba;" horiz-adv-x="823" d="M255 1257q20 143 127 232.5t257 89.5t232 -90t62 -232q-21 -144 -129 -233.5t-258 -89.5q-151 0 -231.5 89t-59.5 234zM371 1255q-14 -99 39 -160t151 -61q97 0 167 61t84 160q14 98 -38.5 160t-149.5 62t-168 -62t-85 -160z" />
<glyph unicode="&#xbb;" horiz-adv-x="888" d="M182 182l269 344l-171 340h140l182 -340l-281 -344h-139zM497 182l269 344l-170 340h139l183 -340l-281 -344h-140z" />
<glyph unicode="&#xbc;" horiz-adv-x="1589" d="M80 0l1280 1434h157l-1277 -1434h-160zM234 1327l16 107h295l-122 -842h-121l106 735h-174zM901 213l14 94l382 535h119l-378 -533h295l32 226h115l-33 -226h129l-13 -96h-129l-31 -213h-115l31 213h-418z" />
<glyph unicode="&#xbd;" horiz-adv-x="1636" d="M80 0l1280 1434h157l-1277 -1434h-160zM234 1327l16 107h295l-122 -842h-121l106 735h-174zM940 0l13 90l374 338q130 115 141 193q8 56 -30.5 87t-114.5 31q-58 0 -125.5 -28t-127.5 -76l-37 92q162 119 324 119q122 0 187.5 -57t52.5 -152q-17 -121 -197 -275 l-294 -260h459l-15 -102h-610z" />
<glyph unicode="&#xbe;" horiz-adv-x="1722" d="M130 674l65 98q83 -86 211 -86q94 0 153.5 44.5t70.5 117.5q10 71 -37.5 109t-143.5 38h-113l11 74l292 264h-377l14 97h516l-11 -76l-300 -275l47 -2q113 -8 174 -68t47 -159q-17 -118 -111.5 -190t-237.5 -72q-77 0 -149.5 23t-120.5 63zM211 0l1280 1434h157 l-1277 -1434h-160zM1034 213l14 94l382 535h119l-378 -533h295l32 226h115l-32 -226h129l-14 -96h-129l-31 -213h-115l31 213h-418z" />
<glyph unicode="&#xbf;" horiz-adv-x="868" d="M71 -6q10 68 36 124.5t60.5 96t74.5 75t80 69.5t74.5 70t59.5 87t34 111h125q-10 -69 -35 -125.5t-57.5 -95.5t-70 -73t-74.5 -65.5t-69 -65.5t-55.5 -81t-31.5 -103q-15 -102 46 -155t176 -53q117 0 191.5 57t96.5 168l129 -2q-33 -175 -153.5 -272t-297.5 -97 q-175 0 -268.5 85.5t-70.5 244.5zM509 987q7 46 39.5 76.5t73.5 30.5q43 0 67.5 -30.5t17.5 -76.5q-7 -47 -39.5 -76.5t-75.5 -29.5q-42 0 -66 29.5t-17 76.5z" />
<glyph unicode="&#xc0;" d="M8 0l850 1434h170l434 -1434h-178l-107 362h-783l-212 -362h-174zM487 520h643l-219 727zM690 1815l174 75l206 -278h-154z" />
<glyph unicode="&#xc1;" d="M8 0l850 1434h170l434 -1434h-178l-107 362h-783l-212 -362h-174zM487 520h643l-219 727zM859 1612l286 278l150 -78l-282 -200h-154z" />
<glyph unicode="&#xc2;" d="M8 0l850 1434h170l434 -1434h-178l-107 362h-783l-212 -362h-174zM487 520h643l-219 727zM681 1616l248 266h155l171 -266h-139l-121 184l-174 -184h-140z" />
<glyph unicode="&#xc3;" d="M8 0l850 1434h170l434 -1434h-178l-107 362h-783l-212 -362h-174zM487 520h643l-219 727zM668 1649q16 114 68 172.5t135 58.5q36 0 70 -19t56.5 -42.5t50.5 -42.5t53 -19q88 0 103 107h107q-17 -114 -68.5 -173t-134.5 -59q-33 0 -61.5 12.5t-49 31t-38.5 36.5t-39 30.5 t-42 12.5q-89 0 -104 -106h-106z" />
<glyph unicode="&#xc4;" d="M8 0l850 1434h170l434 -1434h-178l-107 362h-783l-212 -362h-174zM487 520h643l-219 727zM720 1755q7 44 39.5 74.5t73.5 30.5t65.5 -30.5t17.5 -74.5q-7 -46 -39.5 -76t-73.5 -30q-42 0 -66 30.5t-17 75.5zM1060 1755q7 44 39.5 74.5t73.5 30.5t65.5 -30.5t17.5 -74.5 q-7 -46 -39.5 -76t-73.5 -30q-42 0 -66 30.5t-17 75.5z" />
<glyph unicode="&#xc5;" d="M8 0l820 1382q-56 29 -84 86.5t-18 126.5q14 97 95.5 168.5t180.5 71.5t161 -71.5t48 -168.5q-10 -69 -55 -126.5t-111 -88.5l417 -1380h-178l-107 362h-783l-212 -362h-174zM487 520h643l-219 727zM807 1595q-9 -63 32 -107t106 -44q66 0 120.5 44t63.5 107 q9 61 -32.5 105.5t-107.5 44.5q-65 0 -119 -44.5t-63 -105.5z" />
<glyph unicode="&#xc6;" horiz-adv-x="2103" d="M8 0l1053 1434h1103l-22 -158h-809l-68 -473h725l-23 -156h-725l-70 -489h835l-22 -158h-1000l56 389h-575l-284 -389h-174zM568 528h493l110 760h-51z" />
<glyph unicode="&#xc7;" horiz-adv-x="1433" d="M186 719q29 197 152 362.5t308.5 261t390.5 95.5q146 0 274.5 -55.5t219.5 -153.5l-117 -125q-71 85 -175 132.5t-222 47.5q-160 0 -305 -75t-242 -205t-119 -285q-22 -154 37 -284t183 -205.5t283 -75.5q117 0 233.5 45.5t214.5 126.5l84 -113q-113 -94 -246 -152 t-266 -67l-57 -96q64 -8 98 -49t25 -107q-10 -82 -73.5 -132t-151.5 -50q-96 0 -159 49l47 88q44 -41 115 -41q50 0 84.5 28.5t38.5 67.5q5 36 -19 61t-71 25q-41 0 -69 -6l91 162q-143 9 -262.5 69.5t-197.5 156t-113 225.5t-14 274z" />
<glyph unicode="&#xc8;" horiz-adv-x="1333" d="M217 0l207 1434h972l-22 -158h-809l-68 -471h723l-23 -158h-723l-71 -491h836l-22 -156h-1000zM665 1815l175 75l205 -278h-153z" />
<glyph unicode="&#xc9;" horiz-adv-x="1333" d="M217 0l207 1434h972l-22 -158h-809l-68 -471h723l-23 -158h-723l-71 -491h836l-22 -156h-1000zM834 1612l286 278l151 -78l-283 -200h-154z" />
<glyph unicode="&#xca;" horiz-adv-x="1333" d="M217 0l207 1434h972l-22 -158h-809l-68 -471h723l-23 -158h-723l-71 -491h836l-22 -156h-1000zM657 1616l247 266h156l170 -266h-139l-121 184l-174 -184h-139z" />
<glyph unicode="&#xcb;" horiz-adv-x="1333" d="M217 0l207 1434h972l-22 -158h-809l-68 -471h723l-23 -158h-723l-71 -491h836l-22 -156h-1000zM695 1755q7 44 40 74.5t74 30.5t65.5 -30.5t17.5 -74.5q-7 -45 -39.5 -75.5t-74.5 -30.5t-66 30.5t-17 75.5zM1035 1755q7 44 40 74.5t74 30.5t65.5 -30.5t17.5 -74.5 q-7 -45 -39.5 -75.5t-74.5 -30.5t-66 30.5t-17 75.5z" />
<glyph unicode="&#xcc;" horiz-adv-x="598" d="M217 0l207 1434h164l-207 -1434h-164zM253 1815l175 75l206 -278h-154z" />
<glyph unicode="&#xcd;" horiz-adv-x="598" d="M217 0l207 1434h164l-207 -1434h-164zM421 1612l286 278l150 -78l-283 -200h-153z" />
<glyph unicode="&#xce;" horiz-adv-x="598" d="M217 0l207 1434h164l-207 -1434h-164zM245 1616l247 266h156l171 -266h-140l-121 184l-174 -184h-139z" />
<glyph unicode="&#xcf;" horiz-adv-x="598" d="M217 0l207 1434h164l-207 -1434h-164zM284 1755q7 44 39.5 74.5t73.5 30.5t65.5 -30.5t17.5 -74.5q-7 -46 -39.5 -76t-73.5 -30q-42 0 -66 30.5t-17 75.5zM624 1755q7 44 39.5 74.5t73.5 30.5t65.5 -30.5t17.5 -74.5q-7 -46 -39.5 -76t-73.5 -30q-42 0 -66 30.5t-17 75.5 z" />
<glyph unicode="&#xd0;" horiz-adv-x="1640" d="M96 668l16 106h241l95 660h580q206 0 361.5 -93.5t228.5 -258t44 -365.5t-149.5 -365.5t-304.5 -258t-393 -93.5h-573l96 668h-242zM428 156h418q118 0 229.5 43t198 116.5t146 177.5t76.5 222q23 158 -35 287t-179.5 201.5t-280.5 72.5h-412l-72 -502h457l-16 -106h-456 z" />
<glyph unicode="&#xd1;" horiz-adv-x="1628" d="M217 0l207 1434h170l694 -1153l166 1153h162l-207 -1434h-168l-694 1151l-166 -1151h-164zM745 1649q16 114 68.5 172.5t135.5 58.5q36 0 70 -19t56.5 -42.5t50.5 -42.5t53 -19q88 0 103 107h107q-16 -114 -68.5 -173t-135.5 -59q-33 0 -61.5 12.5t-49 31t-38.5 36.5 t-39 30.5t-42 12.5q-88 0 -103 -106h-107z" />
<glyph unicode="&#xd2;" horiz-adv-x="1665" d="M185 717q29 200 152.5 365.5t310 260.5t393.5 95q154 0 284.5 -56.5t217 -152.5t125.5 -229.5t18 -282.5q-29 -198 -152.5 -365t-309.5 -263.5t-392 -96.5q-155 0 -286 57t-217 154t-125.5 231t-18.5 283zM351 717q-22 -155 38.5 -285.5t184.5 -206t281 -75.5t302 75.5 t242 206t119 285.5t-37.5 285t-182.5 205t-280 75t-303 -75t-244 -205.5t-120 -284.5zM782 1815l174 75l206 -278h-154z" />
<glyph unicode="&#xd3;" horiz-adv-x="1665" d="M185 717q29 200 152.5 365.5t310 260.5t393.5 95q154 0 284.5 -56.5t217 -152.5t125.5 -229.5t18 -282.5q-29 -198 -152.5 -365t-309.5 -263.5t-392 -96.5q-155 0 -286 57t-217 154t-125.5 231t-18.5 283zM351 717q-22 -155 38.5 -285.5t184.5 -206t281 -75.5t302 75.5 t242 206t119 285.5t-37.5 285t-182.5 205t-280 75t-303 -75t-244 -205.5t-120 -284.5zM949 1612l286 278l151 -78l-283 -200h-154z" />
<glyph unicode="&#xd4;" horiz-adv-x="1665" d="M185 717q29 200 152.5 365.5t310 260.5t393.5 95q154 0 284.5 -56.5t217 -152.5t125.5 -229.5t18 -282.5q-29 -198 -152.5 -365t-309.5 -263.5t-392 -96.5q-155 0 -286 57t-217 154t-125.5 231t-18.5 283zM351 717q-22 -155 38.5 -285.5t184.5 -206t281 -75.5t302 75.5 t242 206t119 285.5t-37.5 285t-182.5 205t-280 75t-303 -75t-244 -205.5t-120 -284.5zM774 1616l247 266h155l171 -266h-139l-121 184l-174 -184h-139z" />
<glyph unicode="&#xd5;" horiz-adv-x="1665" d="M185 717q29 200 152.5 365.5t310 260.5t393.5 95q154 0 284.5 -56.5t217 -152.5t125.5 -229.5t18 -282.5q-29 -198 -152.5 -365t-309.5 -263.5t-392 -96.5q-155 0 -286 57t-217 154t-125.5 231t-18.5 283zM351 717q-22 -155 38.5 -285.5t184.5 -206t281 -75.5t302 75.5 t242 206t119 285.5t-37.5 285t-182.5 205t-280 75t-303 -75t-244 -205.5t-120 -284.5zM758 1649q16 114 68 172.5t135 58.5q36 0 70 -19t56.5 -42.5t50.5 -42.5t53 -19q43 0 70 27.5t34 79.5h106q-16 -114 -68 -173t-135 -59q-33 0 -61.5 12.5t-49 31t-38.5 36.5t-39 30.5 t-42 12.5q-89 0 -104 -106h-106z" />
<glyph unicode="&#xd6;" horiz-adv-x="1665" d="M185 717q29 200 152.5 365.5t310 260.5t393.5 95q154 0 284.5 -56.5t217 -152.5t125.5 -229.5t18 -282.5q-29 -198 -152.5 -365t-309.5 -263.5t-392 -96.5q-155 0 -286 57t-217 154t-125.5 231t-18.5 283zM351 717q-22 -155 38.5 -285.5t184.5 -206t281 -75.5t302 75.5 t242 206t119 285.5t-37.5 285t-182.5 205t-280 75t-303 -75t-244 -205.5t-120 -284.5zM812 1755q7 44 39.5 74.5t73.5 30.5t66 -30.5t18 -74.5q-7 -45 -39.5 -75.5t-74.5 -30.5t-66 30.5t-17 75.5zM1152 1755q7 44 39.5 74.5t73.5 30.5t66 -30.5t18 -74.5 q-7 -45 -39.5 -75.5t-74.5 -30.5t-66 30.5t-17 75.5z" />
<glyph unicode="&#xd7;" horiz-adv-x="1005" d="M222 401l295 261l-220 260l90 86l224 -265l300 265l66 -86l-296 -260l221 -261l-91 -86l-224 265l-300 -265z" />
<glyph unicode="&#xd8;" horiz-adv-x="1665" d="M185 717q29 200 152.5 365.5t310 260.5t393.5 95q59 0 153 -15l115 242h104l-126 -268q210 -73 321.5 -259t77.5 -421q-29 -198 -152.5 -365t-309.5 -263.5t-392 -96.5q-101 0 -203 26l-132 -280h-105l150 313q-192 84 -290.5 263.5t-66.5 402.5zM351 717 q-24 -167 49 -305t213 -209l510 1069q-57 10 -105 10q-157 0 -303 -75t-244 -205.5t-120 -284.5zM702 170q67 -20 153 -20q157 0 302 75.5t242 206t119 285.5q26 182 -59 325.5t-245 204.5z" />
<glyph unicode="&#xd9;" horiz-adv-x="1572" d="M269 590l122 844h164l-122 -844q-30 -208 71 -324t306 -116t337.5 116t162.5 324l121 844h164l-121 -844q-41 -280 -223.5 -439t-463.5 -159q-283 0 -420.5 159t-97.5 439zM743 1815l175 75l205 -278h-153z" />
<glyph unicode="&#xda;" horiz-adv-x="1572" d="M269 590l122 844h164l-122 -844q-30 -208 71 -324t306 -116t337.5 116t162.5 324l121 844h164l-121 -844q-41 -280 -223.5 -439t-463.5 -159q-283 0 -420.5 159t-97.5 439zM910 1612l286 278l151 -78l-283 -200h-154z" />
<glyph unicode="&#xdb;" horiz-adv-x="1572" d="M269 590l122 844h164l-122 -844q-30 -208 71 -324t306 -116t337.5 116t162.5 324l121 844h164l-121 -844q-41 -280 -223.5 -439t-463.5 -159q-283 0 -420.5 159t-97.5 439zM733 1616l247 266h155l171 -266h-139l-121 184l-174 -184h-139z" />
<glyph unicode="&#xdc;" horiz-adv-x="1572" d="M269 590l122 844h164l-122 -844q-30 -208 71 -324t306 -116t337.5 116t162.5 324l121 844h164l-121 -844q-41 -280 -223.5 -439t-463.5 -159q-283 0 -420.5 159t-97.5 439zM771 1755q7 44 39.5 74.5t73.5 30.5t66 -30.5t18 -74.5q-7 -45 -39.5 -75.5t-74.5 -30.5 t-66 30.5t-17 75.5zM1111 1755q7 44 39.5 74.5t73.5 30.5t66 -30.5t18 -74.5q-7 -45 -39.5 -75.5t-74.5 -30.5t-66 30.5t-17 75.5z" />
<glyph unicode="&#xdd;" horiz-adv-x="1280" d="M215 1434h170l357 -748l566 748h168l-680 -942l-71 -492h-162l70 485zM763 1612l286 278l150 -78l-283 -200h-153z" />
<glyph unicode="&#xde;" horiz-adv-x="1376" d="M217 0l207 1434h164l-31 -213h332q297 0 435 -120t105 -349q-34 -237 -207.5 -362.5t-470.5 -125.5h-332l-38 -264h-164zM440 408h325q448 0 496 340q23 163 -76.5 246t-322.5 83h-326z" />
<glyph unicode="&#xdf;" horiz-adv-x="1329" d="M184 0l145 1004q35 239 189 381.5t382 142.5q202 0 312 -106.5t85 -282.5q-19 -129 -105.5 -227.5t-211.5 -133.5q153 -27 232.5 -119t58.5 -237q-27 -188 -186 -305t-393 -117h-108l19 133h119q159 0 267 79t126 204q19 130 -76 204t-273 74h-21l19 131 q152 0 253.5 79.5t120.5 211.5q18 124 -53.5 198.5t-206.5 74.5q-153 0 -258 -102t-130 -273l-146 -1014h-160z" />
<glyph unicode="&#xe0;" horiz-adv-x="1181" d="M149 322q20 142 139.5 225t308.5 84h354l9 63q17 120 -47 186t-205 66q-164 0 -360 -123l-51 117q125 75 228.5 110t233.5 35q198 0 291.5 -98.5t70.5 -273.5l-101 -713h-156l24 166q-153 -174 -420 -174q-164 0 -252 94t-67 236zM299 328q-13 -90 46.5 -143.5 t173.5 -53.5q137 0 243.5 65t153.5 177l19 129h-336q-275 0 -300 -174zM487 1460l175 76l205 -279h-153z" />
<glyph unicode="&#xe1;" horiz-adv-x="1181" d="M149 322q20 142 139.5 225t308.5 84h354l9 63q17 120 -47 186t-205 66q-164 0 -360 -123l-51 117q125 75 228.5 110t233.5 35q198 0 291.5 -98.5t70.5 -273.5l-101 -713h-156l24 166q-153 -174 -420 -174q-164 0 -252 94t-67 236zM299 328q-13 -90 46.5 -143.5 t173.5 -53.5q137 0 243.5 65t153.5 177l19 129h-336q-275 0 -300 -174zM654 1257l286 279l151 -78l-283 -201h-154z" />
<glyph unicode="&#xe2;" horiz-adv-x="1181" d="M149 322q20 142 139.5 225t308.5 84h354l9 63q17 120 -47 186t-205 66q-164 0 -360 -123l-51 117q125 75 228.5 110t233.5 35q198 0 291.5 -98.5t70.5 -273.5l-101 -713h-156l24 166q-153 -174 -420 -174q-164 0 -252 94t-67 236zM299 328q-13 -90 46.5 -143.5 t173.5 -53.5q137 0 243.5 65t153.5 177l19 129h-336q-275 0 -300 -174zM477 1262l247 266h156l170 -266h-139l-121 184l-174 -184h-139z" />
<glyph unicode="&#xe3;" horiz-adv-x="1181" d="M149 322q20 142 139.5 225t308.5 84h354l9 63q17 120 -47 186t-205 66q-164 0 -360 -123l-51 117q125 75 228.5 110t233.5 35q198 0 291.5 -98.5t70.5 -273.5l-101 -713h-156l24 166q-153 -174 -420 -174q-164 0 -252 94t-67 236zM299 328q-13 -90 46.5 -143.5 t173.5 -53.5q137 0 243.5 65t153.5 177l19 129h-336q-275 0 -300 -174zM463 1294q17 114 68.5 173t134.5 59q36 0 70 -19t56.5 -42.5t50.5 -42.5t53 -19q89 0 104 106h106q-16 -114 -68 -172.5t-135 -58.5q-33 0 -61.5 12.5t-49 31t-38.5 36.5t-39 30.5t-42 12.5 q-43 0 -70 -27.5t-34 -79.5h-106z" />
<glyph unicode="&#xe4;" horiz-adv-x="1181" d="M149 322q20 142 139.5 225t308.5 84h354l9 63q17 120 -47 186t-205 66q-164 0 -360 -123l-51 117q125 75 228.5 110t233.5 35q198 0 291.5 -98.5t70.5 -273.5l-101 -713h-156l24 166q-153 -174 -420 -174q-164 0 -252 94t-67 236zM299 328q-13 -90 46.5 -143.5 t173.5 -53.5q137 0 243.5 65t153.5 177l19 129h-336q-275 0 -300 -174zM515 1401q7 44 40 74t74 30t65.5 -30t17.5 -74q-7 -46 -40 -76.5t-74 -30.5t-65.5 30.5t-17.5 76.5zM855 1401q7 44 40 74t74 30t65.5 -30t17.5 -74q-7 -46 -40 -76.5t-74 -30.5t-65.5 30.5t-17.5 76.5 z" />
<glyph unicode="&#xe5;" horiz-adv-x="1181" d="M149 322q20 142 139.5 225t308.5 84h354l9 63q17 120 -47 186t-205 66q-164 0 -360 -123l-51 117q125 75 228.5 110t233.5 35q198 0 291.5 -98.5t70.5 -273.5l-101 -713h-156l24 166q-153 -174 -420 -174q-164 0 -252 94t-67 236zM299 328q-13 -90 46.5 -143.5 t173.5 -53.5q137 0 243.5 65t153.5 177l19 129h-336q-275 0 -300 -174zM546 1391q14 94 93 162.5t176 68.5t158 -68.5t47 -162.5q-13 -95 -94 -164.5t-178 -69.5t-156.5 69.5t-45.5 164.5zM624 1391q-9 -61 31 -105.5t105 -44.5t119 44.5t63 105.5q9 60 -32.5 103.5 t-106.5 43.5q-64 0 -117 -43.5t-62 -103.5z" />
<glyph unicode="&#xe6;" horiz-adv-x="2004" d="M148 313q20 140 139 217.5t309 77.5h356l12 86q16 120 -48.5 186t-207.5 66q-178 0 -383 -123l-27 121q244 141 461 141q144 0 235 -53t122 -151q82 97 197.5 150.5t247.5 53.5q240 0 360 -160.5t79 -418.5h-901q-12 -170 81 -271.5t258 -101.5q205 0 354 135l74 -94 q-189 -180 -458 -180q-161 0 -272 75t-154 207q-171 -284 -514 -284q-165 0 -252.5 90t-67.5 231zM299 328q-14 -96 46 -154.5t173 -58.5q282 0 427 276l17 -26q-5 68 -5 81l-25 7l8 59h-330q-136 0 -217 -47.5t-94 -136.5zM1113 602h741q14 159 -70 257.5t-239 98.5 q-156 0 -274 -98.5t-158 -257.5z" />
<glyph unicode="&#xe7;" horiz-adv-x="1148" d="M164 539q34 240 206.5 392t406.5 152q259 3 392 -159l-104 -113q-114 125 -303 125q-168 0 -292 -110.5t-149 -286.5t66.5 -288t259.5 -112q216 0 354 140l78 -99q-161 -166 -408 -184l-57 -98q64 -8 98 -49t25 -107q-10 -82 -73.5 -132t-151.5 -50q-96 0 -159 49l48 88 q44 -41 115 -41q50 0 84 28t38 68q5 36 -19 61t-71 25q-39 0 -68 -6l91 164q-214 17 -327 166.5t-80 376.5z" />
<glyph unicode="&#xe8;" horiz-adv-x="1204" d="M164 539q23 159 109 283t217.5 192.5t286.5 68.5q256 1 362.5 -162t53.5 -444h-881q-1 -158 92 -251t250 -93q204 0 353 135l75 -94q-90 -87 -208 -133.5t-252 -46.5q-157 0 -269 68.5t-162 193t-27 283.5zM331 608h738q15 155 -69.5 246.5t-242.5 91.5 q-154 0 -269.5 -92t-156.5 -246zM514 1460l174 76l206 -279h-154z" />
<glyph unicode="&#xe9;" horiz-adv-x="1204" d="M164 539q23 159 109 283t217.5 192.5t286.5 68.5q256 1 362.5 -162t53.5 -444h-881q-1 -158 92 -251t250 -93q204 0 353 135l75 -94q-90 -87 -208 -133.5t-252 -46.5q-157 0 -269 68.5t-162 193t-27 283.5zM331 608h738q15 155 -69.5 246.5t-242.5 91.5 q-154 0 -269.5 -92t-156.5 -246zM681 1257l286 279l150 -78l-282 -201h-154z" />
<glyph unicode="&#xea;" horiz-adv-x="1204" d="M164 539q23 159 109 283t217.5 192.5t286.5 68.5q256 1 362.5 -162t53.5 -444h-881q-1 -158 92 -251t250 -93q204 0 353 135l75 -94q-90 -87 -208 -133.5t-252 -46.5q-157 0 -269 68.5t-162 193t-27 283.5zM331 608h738q15 155 -69.5 246.5t-242.5 91.5 q-154 0 -269.5 -92t-156.5 -246zM503 1262l248 266h155l171 -266h-139l-121 184l-174 -184h-140z" />
<glyph unicode="&#xeb;" horiz-adv-x="1204" d="M164 539q23 159 109 283t217.5 192.5t286.5 68.5q256 1 362.5 -162t53.5 -444h-881q-1 -158 92 -251t250 -93q204 0 353 135l75 -94q-90 -87 -208 -133.5t-252 -46.5q-157 0 -269 68.5t-162 193t-27 283.5zM331 608h738q15 155 -69.5 246.5t-242.5 91.5 q-154 0 -269.5 -92t-156.5 -246zM542 1401q7 44 39.5 74t73.5 30t65.5 -30t17.5 -74q-7 -46 -39.5 -76.5t-73.5 -30.5t-65.5 30.5t-17.5 76.5zM882 1401q7 44 39.5 74t73.5 30t65.5 -30t17.5 -74q-7 -46 -39.5 -76.5t-73.5 -30.5t-65.5 30.5t-17.5 76.5z" />
<glyph unicode="&#xec;" horiz-adv-x="546" d="M178 1460l174 76l206 -279h-154zM195 0l155 1079h158l-156 -1079h-157z" />
<glyph unicode="&#xed;" horiz-adv-x="546" d="M195 0l155 1079h158l-156 -1079h-157zM345 1257l286 279l151 -78l-283 -201h-154z" />
<glyph unicode="&#xee;" horiz-adv-x="546" d="M167 1262l248 266h155l171 -266h-139l-121 184l-174 -184h-140zM195 0l155 1079h158l-156 -1079h-157z" />
<glyph unicode="&#xef;" horiz-adv-x="546" d="M195 0l155 1079h158l-156 -1079h-157zM206 1401q7 44 39.5 74t73.5 30q42 0 66.5 -30t17.5 -74q-7 -46 -40 -76.5t-74 -30.5t-65.5 30.5t-17.5 76.5zM546 1401q7 44 39.5 74t73.5 30q42 0 66.5 -30t17.5 -74q-7 -46 -40 -76.5t-74 -30.5t-65.5 30.5t-17.5 76.5z" />
<glyph unicode="&#xf0;" horiz-adv-x="1189" d="M160 459q29 203 173 323.5t356 120.5q127 0 224 -53t133 -143q-40 265 -254 497l-313 -96l-13 92l251 78q-116 102 -231 164l117 84q153 -82 272 -199l270 84l16 -94l-213 -66q139 -160 199.5 -350t32.5 -385q-35 -238 -199 -381t-405 -143q-220 0 -333.5 127.5 t-82.5 339.5zM315 469q-22 -149 58 -237.5t237 -88.5q158 0 266 86t128 228q21 146 -61.5 233.5t-240.5 87.5q-157 0 -262 -84t-125 -225z" />
<glyph unicode="&#xf1;" horiz-adv-x="1343" d="M195 0l155 1079h160l-34 -237q145 240 453 243q193 0 285 -111.5t64 -307.5l-96 -666h-160l90 623q20 142 -49.5 222.5t-212.5 80.5q-157 -1 -266 -95t-146 -251l-84 -580h-159zM578 1294q17 114 68.5 173t134.5 59q36 0 70 -19t56.5 -42.5t50.5 -42.5t53 -19 q89 0 104 106h106q-16 -114 -68 -172.5t-135 -58.5q-33 0 -61.5 12.5t-49 31t-38.5 36.5t-39 30.5t-42 12.5q-43 0 -70 -27.5t-34 -79.5h-106z" />
<glyph unicode="&#xf2;" horiz-adv-x="1265" d="M164 541q34 240 209.5 391t415.5 151t371.5 -150.5t97.5 -391.5q-35 -242 -210.5 -394.5t-415.5 -152.5t-371.5 152.5t-96.5 394.5zM323 539q-25 -178 67.5 -290t262.5 -112t295 112t150 290q25 176 -68 287.5t-262 111.5t-294.5 -111.5t-150.5 -287.5zM536 1460l175 76 l205 -279h-153z" />
<glyph unicode="&#xf3;" horiz-adv-x="1265" d="M164 541q34 240 209.5 391t415.5 151t371.5 -150.5t97.5 -391.5q-35 -242 -210.5 -394.5t-415.5 -152.5t-371.5 152.5t-96.5 394.5zM323 539q-25 -178 67.5 -290t262.5 -112t295 112t150 290q25 176 -68 287.5t-262 111.5t-294.5 -111.5t-150.5 -287.5zM705 1257l286 279 l151 -78l-283 -201h-154z" />
<glyph unicode="&#xf4;" horiz-adv-x="1265" d="M164 541q34 240 209.5 391t415.5 151t371.5 -150.5t97.5 -391.5q-35 -242 -210.5 -394.5t-415.5 -152.5t-371.5 152.5t-96.5 394.5zM323 539q-25 -178 67.5 -290t262.5 -112t295 112t150 290q25 176 -68 287.5t-262 111.5t-294.5 -111.5t-150.5 -287.5zM528 1262l247 266 h156l170 -266h-139l-121 184l-174 -184h-139z" />
<glyph unicode="&#xf5;" horiz-adv-x="1265" d="M164 541q34 240 209.5 391t415.5 151t371.5 -150.5t97.5 -391.5q-35 -242 -210.5 -394.5t-415.5 -152.5t-371.5 152.5t-96.5 394.5zM323 539q-25 -178 67.5 -290t262.5 -112t295 112t150 290q25 176 -68 287.5t-262 111.5t-294.5 -111.5t-150.5 -287.5zM514 1294 q16 114 68.5 173t135.5 59q36 0 70 -19t56.5 -42.5t50.5 -42.5t53 -19q88 0 103 106h107q-16 -114 -68.5 -172.5t-135.5 -58.5q-33 0 -61.5 12.5t-49 31t-38.5 36.5t-39 30.5t-42 12.5q-88 0 -103 -107h-107z" />
<glyph unicode="&#xf6;" horiz-adv-x="1265" d="M164 541q34 240 209.5 391t415.5 151t371.5 -150.5t97.5 -391.5q-35 -242 -210.5 -394.5t-415.5 -152.5t-371.5 152.5t-96.5 394.5zM323 539q-25 -178 67.5 -290t262.5 -112t295 112t150 290q25 176 -68 287.5t-262 111.5t-294.5 -111.5t-150.5 -287.5zM566 1401 q7 44 40 74t74 30t65.5 -30t17.5 -74q-7 -46 -40 -76.5t-74 -30.5t-65.5 30.5t-17.5 76.5zM906 1401q7 44 40 74t74 30t65.5 -30t17.5 -74q-7 -46 -40 -76.5t-74 -30.5t-65.5 30.5t-17.5 76.5z" />
<glyph unicode="&#xf7;" horiz-adv-x="1005" d="M163 602l17 119h854l-17 -119h-854zM447 313q7 46 39.5 76.5t73.5 30.5t65.5 -30.5t17.5 -76.5q-7 -44 -39.5 -74t-73.5 -30t-65.5 30t-17.5 74zM551 1038q7 44 39.5 74.5t73.5 30.5t66 -30.5t18 -74.5q-7 -45 -39.5 -75.5t-74.5 -30.5t-66 30.5t-17 75.5z" />
<glyph unicode="&#xf8;" horiz-adv-x="1265" d="M164 541q34 240 209.5 391t415.5 151q66 0 129 -12l131 283h80l-140 -303q149 -56 222.5 -191.5t46.5 -318.5q-35 -242 -210.5 -394.5t-415.5 -152.5q-66 0 -129 12l-143 -309h-82l154 332q-149 56 -222 191.5t-46 320.5zM315 539q-19 -135 28.5 -235.5t148.5 -145.5 l365 784q-35 8 -87 8q-174 0 -301.5 -114.5t-153.5 -296.5zM562 133q37 -8 89 -8q174 0 301.5 115t153.5 299q19 135 -29.5 235.5t-149.5 145.5z" />
<glyph unicode="&#xf9;" horiz-adv-x="1325" d="M217 414l96 665h160l-90 -622q-20 -142 48 -222.5t208 -80.5q165 3 275.5 111.5t135.5 283.5l76 530h160l-156 -1079h-159l35 244q-141 -247 -446 -250q-189 0 -280 112t-63 308zM561 1460l174 76l206 -279h-154z" />
<glyph unicode="&#xfa;" horiz-adv-x="1325" d="M217 414l96 665h160l-90 -622q-20 -142 48 -222.5t208 -80.5q165 3 275.5 111.5t135.5 283.5l76 530h160l-156 -1079h-159l35 244q-141 -247 -446 -250q-189 0 -280 112t-63 308zM728 1257l286 279l150 -78l-282 -201h-154z" />
<glyph unicode="&#xfb;" horiz-adv-x="1325" d="M217 414l96 665h160l-90 -622q-20 -142 48 -222.5t208 -80.5q165 3 275.5 111.5t135.5 283.5l76 530h160l-156 -1079h-159l35 244q-141 -247 -446 -250q-189 0 -280 112t-63 308zM550 1262l248 266h155l171 -266h-139l-121 184l-174 -184h-140z" />
<glyph unicode="&#xfc;" horiz-adv-x="1325" d="M217 414l96 665h160l-90 -622q-20 -142 48 -222.5t208 -80.5q165 3 275.5 111.5t135.5 283.5l76 530h160l-156 -1079h-159l35 244q-141 -247 -446 -250q-189 0 -280 112t-63 308zM589 1401q7 44 39.5 74t73.5 30q42 0 66.5 -30t17.5 -74q-7 -46 -40 -76.5t-74 -30.5 t-65.5 30.5t-17.5 76.5zM929 1401q7 44 39.5 74t73.5 30q42 0 66.5 -30t17.5 -74q-7 -46 -40 -76.5t-74 -30.5t-65.5 30.5t-17.5 76.5z" />
<glyph unicode="&#xfd;" horiz-adv-x="1028" d="M-59 -326l87 133q64 -51 144 -51q131 0 218 152l60 100l-292 1071h168l230 -891l470 891h164l-674 -1233q-68 -124 -159.5 -188t-199.5 -64q-128 0 -216 80zM591 1257l286 279l150 -78l-283 -201h-153z" />
<glyph unicode="&#xfe;" horiz-adv-x="1384" d="M148 -397l276 1917h160l-98 -674q77 114 194 176.5t257 62.5q229 0 351.5 -152.5t87.5 -395.5q-35 -240 -200 -391.5t-393 -151.5q-143 0 -242 61.5t-143 175.5l-91 -628h-159zM442 541q-25 -177 67.5 -289.5t262.5 -112.5q168 0 292.5 113.5t150.5 288.5 q25 174 -67.5 287.5t-260.5 113.5q-170 0 -294.5 -113t-150.5 -288z" />
<glyph unicode="&#xff;" horiz-adv-x="1028" d="M-59 -326l87 133q64 -51 144 -51q131 0 218 152l60 100l-292 1071h168l230 -891l470 891h164l-674 -1233q-68 -124 -159.5 -188t-199.5 -64q-128 0 -216 80zM454 1401q7 44 39.5 74t73.5 30t65.5 -30t17.5 -74q-7 -46 -39.5 -76.5t-73.5 -30.5t-65.5 30.5t-17.5 76.5z M794 1401q7 44 39.5 74t73.5 30t65.5 -30t17.5 -74q-7 -46 -39.5 -76.5t-73.5 -30.5t-65.5 30.5t-17.5 76.5z" />
<glyph unicode="&#x152;" horiz-adv-x="2240" d="M185 717q29 196 152 361t309 260.5t392 95.5h1266l-23 -158h-811l-68 -473h725l-23 -156h-725l-70 -489h837l-22 -158h-1293q-206 0 -364.5 95t-234.5 260t-47 362zM351 715q-22 -155 37.5 -283.5t183 -202t284.5 -73.5l290 -2l162 1122h-291q-161 0 -306 -74 t-241.5 -203t-118.5 -284z" />
<glyph unicode="&#x153;" horiz-adv-x="2158" d="M164 541q34 240 209.5 391t415.5 151q161 0 272 -75.5t152 -208.5q79 133 210 208.5t288 75.5q159 0 269 -72.5t154.5 -203.5t17.5 -301h-906q-12 -169 82.5 -271t259.5 -102q206 0 355 135l75 -94q-91 -87 -209 -133.5t-251 -46.5q-161 0 -271 75.5t-149 209.5 q-81 -134 -213.5 -209.5t-292.5 -75.5q-240 0 -371.5 152.5t-96.5 394.5zM323 539q-25 -178 67.5 -290t262.5 -112t295 112t150 290q25 176 -68 287.5t-262 111.5t-294.5 -111.5t-150.5 -287.5zM1263 604h743q14 157 -71 254.5t-243 97.5q-154 0 -271.5 -97t-157.5 -255z " />
<glyph unicode="&#x178;" horiz-adv-x="1280" d="M215 1434h170l357 -748l566 748h168l-680 -942l-71 -492h-162l70 485zM624 1755q7 44 39.5 74.5t73.5 30.5t65.5 -30.5t17.5 -74.5q-7 -46 -39.5 -76t-73.5 -30q-42 0 -66 30.5t-17 75.5zM964 1755q7 44 39.5 74.5t73.5 30.5t65.5 -30.5t17.5 -74.5q-7 -46 -39.5 -76 t-73.5 -30q-42 0 -66 30.5t-17 75.5z" />
<glyph unicode="&#x2c6;" horiz-adv-x="716" d="M254 1266l247 266h156l171 -266h-140l-121 184l-174 -184h-139z" />
<glyph unicode="&#x2dc;" horiz-adv-x="716" d="M240 1294q17 114 68.5 173t134.5 59q36 0 70 -19t56.5 -42.5t50.5 -42.5t53 -19q89 0 104 106h106q-16 -114 -68 -172.5t-135 -58.5q-33 0 -61.5 12.5t-49 31t-38.5 36.5t-39 30.5t-42 12.5q-43 0 -70 -27.5t-34 -79.5h-106z" />
<glyph unicode="&#x2000;" horiz-adv-x="945" />
<glyph unicode="&#x2001;" horiz-adv-x="1890" />
<glyph unicode="&#x2002;" horiz-adv-x="945" />
<glyph unicode="&#x2003;" horiz-adv-x="1890" />
<glyph unicode="&#x2004;" horiz-adv-x="630" />
<glyph unicode="&#x2005;" horiz-adv-x="472" />
<glyph unicode="&#x2006;" horiz-adv-x="315" />
<glyph unicode="&#x2007;" horiz-adv-x="315" />
<glyph unicode="&#x2008;" horiz-adv-x="236" />
<glyph unicode="&#x2009;" horiz-adv-x="378" />
<glyph unicode="&#x200a;" horiz-adv-x="105" />
<glyph unicode="&#x2010;" horiz-adv-x="743" d="M212 561l17 119h481l-17 -119h-481z" />
<glyph unicode="&#x2011;" horiz-adv-x="743" d="M212 561l17 119h481l-17 -119h-481z" />
<glyph unicode="&#x2012;" horiz-adv-x="743" d="M212 561l17 119h481l-17 -119h-481z" />
<glyph unicode="&#x2013;" horiz-adv-x="825" d="M68 471l17 121h826l-18 -121h-825z" />
<glyph unicode="&#x2014;" d="M68 471l17 121h1471l-18 -121h-1470z" />
<glyph unicode="&#x2018;" horiz-adv-x="403" d="M261 1212q6 41 43 86l118 150h90l-89 -150q42 -27 34 -88q-7 -44 -39.5 -73t-73.5 -29q-40 0 -64.5 28t-18.5 76z" />
<glyph unicode="&#x2019;" horiz-adv-x="403" d="M244 1094l89 149q-41 27 -33 86q7 46 38.5 75.5t72.5 29.5t66 -29.5t18 -75.5q-6 -40 -44 -88l-117 -147h-90z" />
<glyph unicode="&#x201a;" horiz-adv-x="403" d="M65 -147l89 149q-40 26 -32 88q7 44 38.5 73.5t72.5 29.5t65.5 -28.5t17.5 -76.5q-6 -40 -44 -88l-117 -147h-90z" />
<glyph unicode="&#x201c;" horiz-adv-x="577" d="M261 1212q6 42 43 88l118 148h90l-89 -150q40 -26 32 -88q-7 -44 -38.5 -73t-72.5 -29t-65.5 28t-17.5 76zM519 1212q6 42 43 88l118 148h90l-89 -150q40 -26 32 -88q-7 -44 -38.5 -73t-72.5 -29t-65.5 28t-17.5 76z" />
<glyph unicode="&#x201d;" horiz-adv-x="624" d="M244 1094l89 149q-41 27 -33 88q7 44 38.5 73.5t72.5 29.5t66 -28.5t18 -76.5q-6 -40 -44 -88l-117 -147h-90zM502 1094l89 149q-41 27 -33 88q7 44 38.5 73.5t72.5 29.5t66 -28.5t18 -76.5q-6 -40 -44 -88l-117 -147h-90z" />
<glyph unicode="&#x201e;" horiz-adv-x="661" d="M65 -147l89 149q-40 26 -32 88q7 44 38.5 73.5t72.5 29.5t65.5 -28.5t17.5 -76.5q-6 -40 -44 -88l-117 -147h-90zM323 -147l89 149q-40 26 -32 88q7 44 38.5 73.5t72.5 29.5t65.5 -28.5t17.5 -76.5q-6 -40 -44 -88l-117 -147h-90z" />
<glyph unicode="&#x2022;" horiz-adv-x="507" d="M184 549q10 68 59 113t113 45t100.5 -45t26.5 -113q-10 -69 -60 -115.5t-113 -46.5t-99.5 46.5t-26.5 115.5z" />
<glyph unicode="&#x2026;" horiz-adv-x="1150" d="M117 88q7 44 38.5 73t72.5 29q42 0 65.5 -29t16.5 -73t-39 -74t-73 -30t-64.5 30t-16.5 74zM492 88q7 44 39 73t72 29q42 0 66 -29t17 -73t-39.5 -74t-73.5 -30q-40 0 -64 30t-17 74zM867 88q7 44 39.5 73t73.5 29q40 0 64 -29t17 -73t-39 -74t-72 -30q-41 0 -65.5 30 t-17.5 74z" />
<glyph unicode="&#x202f;" horiz-adv-x="378" />
<glyph unicode="&#x2039;" horiz-adv-x="559" d="M151 522l281 344h139l-268 -344l170 -340h-140z" />
<glyph unicode="&#x203a;" horiz-adv-x="573" d="M182 182l271 344l-172 342h139l182 -342l-281 -344h-139z" />
<glyph unicode="&#x205f;" horiz-adv-x="472" />
<glyph unicode="&#x20ac;" horiz-adv-x="1630" d="M157 477l15 105h203q-3 69 7 137q8 61 31 131h-202l15 104h229q107 215 319.5 349.5t458.5 134.5q146 0 275.5 -55.5t216.5 -153.5l-112 -125q-73 85 -177 132.5t-223 47.5q-176 0 -332.5 -90t-247.5 -240h555l-15 -104h-590q-27 -68 -35 -131q-10 -65 -3 -137h589 l-15 -105h-551q50 -146 179.5 -234.5t302.5 -88.5q115 0 232.5 45.5t218.5 126.5l80 -113q-120 -102 -268 -161.5t-294 -59.5q-243 0 -414.5 134.5t-216.5 350.5h-231z" />
<glyph unicode="&#x2122;" horiz-adv-x="1792" d="M184 1321l16 113h654l-16 -113h-267l-107 -748h-123l107 748h-264zM865 573l124 861h147l211 -600l381 600h150l-124 -861h-113l98 682l-378 -591h-78l-207 591l-98 -682h-113z" />
<glyph unicode="&#x25fc;" horiz-adv-x="1075" d="M0 0v1075h1075v-1075h-1075z" />
</font>
</defs>
</svg>
